<?xml version="1.0" encoding="UTF-8"?>
<svg xmlns="http://www.w3.org/2000/svg" width="297mm" height="210mm" viewBox="0 0 297 210">
<title>フクイラプトル 3Dもようぬりえ（v4 ななめよこ）</title>
<metadata id="dino-coloring-meta"><![CDATA[{"app": "dino-texture-coloring", "version": 4, "dino": "fukuiraptor", "name": "フクイラプトル", "sheetMarkerId": 41, "page": {"w": 297, "h": 210, "unit": "mm"}, "projection": {"type": "orthographic-oblique", "viewDir_toCamera": [-0.78087, 0.0, 0.6247], "screenRight": [0.6247, -0.0, 0.78087], "screenUp": [0.0, 1.0, 0.0], "voxel": 0.016666666666666666, "mm_per_voxel": 1.43859, "origin_mm": [171.5176, 189.9644], "sheetFromModel": "X = X0 + s*(p·screenRight),  Y = Y0 − s*(p·screenUp)  (p=ボクセル単位)", "uvFromSheet": "u=X/297, v=1−Y/210"}, "markers": {"dict": "ARUCO_4X4_50", "size": 12, "corners": {"TL": {"id": 0, "x": 8, "y": 8}, "TR": {"id": 1, "x": 277, "y": 8}, "BR": {"id": 2, "x": 277, "y": 190}, "BL": {"id": 3, "x": 8, "y": 190}}}, "mapping": "coloring/data/fukuiraptor.json"}]]></metadata>
<style>
  #silhouette{fill:#fff} .plane{fill:none;stroke:#000;stroke-width:0.55;stroke-linejoin:round}
  .outline{fill:none;stroke:#000;stroke-width:1.4;stroke-linejoin:round} .eye{fill:#000} .eye-hl{fill:#fff} .marker{fill:#000}
  .title{font-family:"Hiragino Maru Gothic ProN","BIZ UDPGothic","Noto Sans CJK JP","Noto Sans JP",sans-serif;font-weight:700} .sub{font-family:"Hiragino Maru Gothic ProN","BIZ UDPGothic","Noto Sans CJK JP","Noto Sans JP",sans-serif;fill:#555}
</style>
<rect id="paper" width="297" height="210" fill="#fff"/>
<g id="chrome">
  <text class="title" x="30" y="19" font-size="8.6">フクイラプトルに もようを かこう！</text>
  <text class="sub" x="31" y="26.5" font-size="4">しまもよう・みずたま・すきな え… かいたとおりに 3Dの きょうりゅうに うつるよ</text>
  <text class="sub" x="205" y="19" font-size="4.6">なまえ</text>
  <line x1="220" y1="20" x2="270" y2="20" stroke="#999" stroke-width="0.5"/>
  <text class="sub" x="41" y="199" font-size="3">No.02 fukuiraptor v4 ななめよこ</text>
</g>
<g id="markers">
  <path id="marker_0" class="marker" d="M8.000,8.000h2.000v2.000h-2.000zM10.000,8.000h2.000v2.000h-2.000zM12.000,8.000h2.000v2.000h-2.000zM14.000,8.000h2.000v2.000h-2.000zM16.000,8.000h2.000v2.000h-2.000zM18.000,8.000h2.000v2.000h-2.000zM8.000,10.000h2.000v2.000h-2.000zM12.000,10.000h2.000v2.000h-2.000zM18.000,10.000h2.000v2.000h-2.000zM8.000,12.000h2.000v2.000h-2.000zM10.000,12.000h2.000v2.000h-2.000zM14.000,12.000h2.000v2.000h-2.000zM18.000,12.000h2.000v2.000h-2.000zM8.000,14.000h2.000v2.000h-2.000zM10.000,14.000h2.000v2.000h-2.000zM12.000,14.000h2.000v2.000h-2.000zM18.000,14.000h2.000v2.000h-2.000zM8.000,16.000h2.000v2.000h-2.000zM10.000,16.000h2.000v2.000h-2.000zM12.000,16.000h2.000v2.000h-2.000zM16.000,16.000h2.000v2.000h-2.000zM18.000,16.000h2.000v2.000h-2.000zM8.000,18.000h2.000v2.000h-2.000zM10.000,18.000h2.000v2.000h-2.000zM12.000,18.000h2.000v2.000h-2.000zM14.000,18.000h2.000v2.000h-2.000zM16.000,18.000h2.000v2.000h-2.000zM18.000,18.000h2.000v2.000h-2.000z"/><path id="marker_1" class="marker" d="M277.000,8.000h2.000v2.000h-2.000zM279.000,8.000h2.000v2.000h-2.000zM281.000,8.000h2.000v2.000h-2.000zM283.000,8.000h2.000v2.000h-2.000zM285.000,8.000h2.000v2.000h-2.000zM287.000,8.000h2.000v2.000h-2.000zM277.000,10.000h2.000v2.000h-2.000zM279.000,10.000h2.000v2.000h-2.000zM281.000,10.000h2.000v2.000h-2.000zM283.000,10.000h2.000v2.000h-2.000zM285.000,10.000h2.000v2.000h-2.000zM287.000,10.000h2.000v2.000h-2.000zM277.000,12.000h2.000v2.000h-2.000zM287.000,12.000h2.000v2.000h-2.000zM277.000,14.000h2.000v2.000h-2.000zM281.000,14.000h2.000v2.000h-2.000zM283.000,14.000h2.000v2.000h-2.000zM287.000,14.000h2.000v2.000h-2.000zM277.000,16.000h2.000v2.000h-2.000zM281.000,16.000h2.000v2.000h-2.000zM285.000,16.000h2.000v2.000h-2.000zM287.000,16.000h2.000v2.000h-2.000zM277.000,18.000h2.000v2.000h-2.000zM279.000,18.000h2.000v2.000h-2.000zM281.000,18.000h2.000v2.000h-2.000zM283.000,18.000h2.000v2.000h-2.000zM285.000,18.000h2.000v2.000h-2.000zM287.000,18.000h2.000v2.000h-2.000z"/><path id="marker_2" class="marker" d="M277.000,190.000h2.000v2.000h-2.000zM279.000,190.000h2.000v2.000h-2.000zM281.000,190.000h2.000v2.000h-2.000zM283.000,190.000h2.000v2.000h-2.000zM285.000,190.000h2.000v2.000h-2.000zM287.000,190.000h2.000v2.000h-2.000zM277.000,192.000h2.000v2.000h-2.000zM279.000,192.000h2.000v2.000h-2.000zM281.000,192.000h2.000v2.000h-2.000zM287.000,192.000h2.000v2.000h-2.000zM277.000,194.000h2.000v2.000h-2.000zM279.000,194.000h2.000v2.000h-2.000zM281.000,194.000h2.000v2.000h-2.000zM287.000,194.000h2.000v2.000h-2.000zM277.000,196.000h2.000v2.000h-2.000zM279.000,196.000h2.000v2.000h-2.000zM281.000,196.000h2.000v2.000h-2.000zM285.000,196.000h2.000v2.000h-2.000zM287.000,196.000h2.000v2.000h-2.000zM277.000,198.000h2.000v2.000h-2.000zM283.000,198.000h2.000v2.000h-2.000zM287.000,198.000h2.000v2.000h-2.000zM277.000,200.000h2.000v2.000h-2.000zM279.000,200.000h2.000v2.000h-2.000zM281.000,200.000h2.000v2.000h-2.000zM283.000,200.000h2.000v2.000h-2.000zM285.000,200.000h2.000v2.000h-2.000zM287.000,200.000h2.000v2.000h-2.000z"/><path id="marker_3" class="marker" d="M8.000,190.000h2.000v2.000h-2.000zM10.000,190.000h2.000v2.000h-2.000zM12.000,190.000h2.000v2.000h-2.000zM14.000,190.000h2.000v2.000h-2.000zM16.000,190.000h2.000v2.000h-2.000zM18.000,190.000h2.000v2.000h-2.000zM8.000,192.000h2.000v2.000h-2.000zM12.000,192.000h2.000v2.000h-2.000zM14.000,192.000h2.000v2.000h-2.000zM18.000,192.000h2.000v2.000h-2.000zM8.000,194.000h2.000v2.000h-2.000zM12.000,194.000h2.000v2.000h-2.000zM14.000,194.000h2.000v2.000h-2.000zM18.000,194.000h2.000v2.000h-2.000zM8.000,196.000h2.000v2.000h-2.000zM10.000,196.000h2.000v2.000h-2.000zM14.000,196.000h2.000v2.000h-2.000zM16.000,196.000h2.000v2.000h-2.000zM18.000,196.000h2.000v2.000h-2.000zM8.000,198.000h2.000v2.000h-2.000zM10.000,198.000h2.000v2.000h-2.000zM16.000,198.000h2.000v2.000h-2.000zM18.000,198.000h2.000v2.000h-2.000zM8.000,200.000h2.000v2.000h-2.000zM10.000,200.000h2.000v2.000h-2.000zM12.000,200.000h2.000v2.000h-2.000zM14.000,200.000h2.000v2.000h-2.000zM16.000,200.000h2.000v2.000h-2.000zM18.000,200.000h2.000v2.000h-2.000z"/>
  <path id="marker_41" class="marker" d="M26.000,190.000h2.000v2.000h-2.000zM28.000,190.000h2.000v2.000h-2.000zM30.000,190.000h2.000v2.000h-2.000zM32.000,190.000h2.000v2.000h-2.000zM34.000,190.000h2.000v2.000h-2.000zM36.000,190.000h2.000v2.000h-2.000zM26.000,192.000h2.000v2.000h-2.000zM28.000,192.000h2.000v2.000h-2.000zM30.000,192.000h2.000v2.000h-2.000zM34.000,192.000h2.000v2.000h-2.000zM36.000,192.000h2.000v2.000h-2.000zM26.000,194.000h2.000v2.000h-2.000zM30.000,194.000h2.000v2.000h-2.000zM34.000,194.000h2.000v2.000h-2.000zM36.000,194.000h2.000v2.000h-2.000zM26.000,196.000h2.000v2.000h-2.000zM28.000,196.000h2.000v2.000h-2.000zM30.000,196.000h2.000v2.000h-2.000zM34.000,196.000h2.000v2.000h-2.000zM36.000,196.000h2.000v2.000h-2.000zM26.000,198.000h2.000v2.000h-2.000zM30.000,198.000h2.000v2.000h-2.000zM32.000,198.000h2.000v2.000h-2.000zM34.000,198.000h2.000v2.000h-2.000zM36.000,198.000h2.000v2.000h-2.000zM26.000,200.000h2.000v2.000h-2.000zM28.000,200.000h2.000v2.000h-2.000zM30.000,200.000h2.000v2.000h-2.000zM32.000,200.000h2.000v2.000h-2.000zM34.000,200.000h2.000v2.000h-2.000zM36.000,200.000h2.000v2.000h-2.000z"/>
</g>
<g id="model" data-dino="fukuiraptor">
  <path id="silhouette" d="M277.00,52.60 L255.10,52.60 L255.00,35.30 L195.90,35.30 L195.80,67.00 L120.90,67.00 L120.80,84.20 L107.40,84.20 L107.30,88.50 L90.30,88.50 L90.20,91.40 L73.20,91.40 L73.10,95.70 L56.20,95.70 L56.10,100.10 L39.10,100.10 L39.00,104.40 L22.00,104.40 L22.00,117.30 L49.20,117.30 L49.30,115.90 L86.90,115.90 L87.00,114.40 L105.80,114.40 L105.90,113.00 L143.50,113.00 L143.50,104.50 L145.70,104.40 L145.80,174.80 L143.80,174.90 L143.80,190.70 L213.90,190.70 L213.90,174.90 L209.90,174.90 L209.80,172.00 L204.00,171.90 L204.00,104.50 L226.70,104.40 L226.70,98.70 L230.00,98.60 L230.00,78.50 L226.80,78.50 L226.80,77.00 L277.00,77.00Z"/>
  <path id="planes" class="plane" d="M143.80,174.90 L143.80,190.70 L175.20,190.70 L175.20,174.90ZM145.80,98.60 L145.80,174.80 L167.10,174.80 L167.10,98.60ZM182.60,78.50 L182.60,98.60 L195.00,98.60 L195.00,78.50ZM172.60,172.00 L172.60,174.80 L181.60,174.90 L181.60,186.40 L183.80,186.40 L183.80,172.00ZM120.90,67.00 L120.90,104.40 L145.70,104.40 L145.80,98.50 L172.50,98.50 L172.60,104.40 L200.60,104.40 L200.60,67.00ZM182.60,78.40 L199.60,78.50 L199.50,98.70 L182.50,98.60ZM195.90,35.30 L195.90,66.90 L201.60,67.00 L201.60,77.00 L230.70,77.00 L230.70,35.30ZM233.50,52.60 L233.50,77.00 L258.10,77.00 L258.10,52.60ZM107.40,84.20 L107.40,113.00 L126.50,113.00 L126.50,104.50 L120.80,104.40 L120.80,84.20ZM90.30,88.50 L90.30,113.00 L107.30,113.00 L107.30,88.50ZM73.20,91.40 L73.20,114.40 L92.30,114.40 L92.30,113.10 L90.20,113.00 L90.20,91.40ZM56.20,95.70 L56.20,115.90 L75.20,115.90 L75.20,114.50 L73.10,114.40 L73.10,95.70ZM39.10,100.10 L39.10,115.90 L56.10,115.90 L56.10,100.10ZM22.00,104.40 L22.00,117.30 L41.10,117.30 L41.10,116.00 L39.00,115.90 L39.00,104.40ZM194.20,174.90 L194.20,190.70 L195.00,190.70 L195.00,174.90ZM184.30,104.50 L184.30,171.90 L186.90,171.90 L186.90,104.50ZM192.40,172.00 L192.40,174.80 L201.40,174.90 L201.40,186.40 L203.50,186.40 L203.50,172.00ZM41.20,116.00 L41.20,117.30 L49.20,117.30 L49.20,116.00ZM75.30,114.50 L75.30,115.90 L86.90,115.90 L86.90,114.50ZM92.40,113.10 L92.40,114.40 L105.80,114.40 L105.80,113.10ZM126.60,104.50 L126.60,113.00 L143.50,113.00 L143.50,104.50ZM204.00,104.50 L187.00,104.50 L187.00,171.90 L190.10,171.90 L190.20,174.80 L192.30,174.80 L192.40,171.90 L204.00,171.90ZM167.20,98.60 L167.20,174.80 L172.50,174.80 L172.60,171.90 L184.20,171.90 L184.20,104.50 L172.60,104.50 L172.50,98.60ZM195.10,174.90 L195.10,190.70 L213.90,190.70 L213.90,174.90 L209.90,174.90 L209.80,186.50 L201.40,186.50 L201.30,174.90ZM175.30,174.90 L175.30,190.70 L194.10,190.70 L194.10,174.90 L190.20,174.90 L190.10,186.50 L181.60,186.50 L181.50,174.90ZM203.60,172.00 L203.60,186.40 L209.80,186.40 L209.80,172.00ZM183.90,172.00 L183.90,186.40 L190.10,186.40 L190.10,172.00ZM226.80,78.50 L226.80,98.60 L230.00,98.60 L230.00,78.50ZM195.10,78.50 L195.10,98.60 L199.50,98.60 L199.50,78.50ZM200.70,67.00 L200.70,104.40 L226.70,104.40 L226.70,77.10 L201.60,77.10 L201.50,67.00ZM255.00,35.30 L230.80,35.30 L230.80,77.00 L233.40,77.00 L233.40,52.60 L255.00,52.50ZM258.20,52.60 L258.20,77.00 L277.00,77.00 L277.00,52.60Z"/>
  <path id="outline" class="outline" d="M277.00,52.60 L255.10,52.60 L255.00,35.30 L195.90,35.30 L195.80,67.00 L120.90,67.00 L120.80,84.20 L107.40,84.20 L107.30,88.50 L90.30,88.50 L90.20,91.40 L73.20,91.40 L73.10,95.70 L56.20,95.70 L56.10,100.10 L39.10,100.10 L39.00,104.40 L22.00,104.40 L22.00,117.30 L49.20,117.30 L49.30,115.90 L86.90,115.90 L87.00,114.40 L105.80,114.40 L105.90,113.00 L143.50,113.00 L143.50,104.50 L145.70,104.40 L145.80,174.80 L143.80,174.90 L143.80,190.70 L213.90,190.70 L213.90,174.90 L209.90,174.90 L209.80,172.00 L204.00,171.90 L204.00,104.50 L226.70,104.40 L226.70,98.70 L230.00,98.60 L230.00,78.50 L226.80,78.50 L226.80,77.00 L277.00,77.00Z"/>
  <g id="eyes"><path class="eye" d="M248.80,46.80 L248.80,52.50 L255.00,52.50 L255.00,46.80 L251.50,46.80 L251.40,48.40 L250.50,48.30 L250.50,46.90ZM229.60,46.90 L229.60,56.80 L233.40,56.90 L233.40,52.60 L237.00,52.50 L237.00,46.90 L233.50,46.80 L233.40,48.40 L232.50,48.30 L232.50,46.90Z"/><path class="eye-hl" d="M232.60,46.90 L232.60,48.30 L233.40,48.30 L233.40,46.90ZM250.60,46.80 L250.60,48.30 L251.40,48.30 L251.40,46.80Z"/></g>
</g>
</svg>